solid 
 facet normal  1.000000e+00 -1.030921e-15  0.000000e+00
   outer loop
     vertex  1.280625e-01 -4.000000e-01  9.849632e-02
     vertex  1.280625e-01  3.000000e-01  1.325000e-01
     vertex  1.280625e-01 -4.000000e-01  1.325000e-01
   endloop
 endfacet
 facet normal  1.000000e+00 -1.229175e-15  4.081261e-15
   outer loop
     vertex  1.280625e-01 -4.000000e-01  9.849632e-02
     vertex  1.280625e-01  3.000000e-01  9.849632e-02
     vertex  1.280625e-01  3.000000e-01  1.325000e-01
   endloop
 endfacet
 facet normal -9.382717e-01  4.455454e-16 -3.458991e-01
   outer loop
     vertex -1.280625e-01 -4.000000e-01  9.849632e-02
     vertex -1.280625e-01  3.000000e-01  9.849632e-02
     vertex -1.194897e-01  3.000000e-01  7.524218e-02
   endloop
 endfacet
 facet normal -8.574413e-01  3.234243e-16 -5.145818e-01
   outer loop
     vertex -1.194897e-01 -4.000000e-01  7.524218e-02
     vertex -1.194897e-01  3.000000e-01  7.524218e-02
     vertex -1.067363e-01  3.000000e-01  5.399133e-02
   endloop
 endfacet
 facet normal -9.382717e-01 -4.642117e-16 -3.458991e-01
   outer loop
     vertex -1.194897e-01 -4.000000e-01  7.524218e-02
     vertex -1.280625e-01 -4.000000e-01  9.849632e-02
     vertex -1.194897e-01  3.000000e-01  7.524218e-02
   endloop
 endfacet
 facet normal -7.466112e-01  2.922724e-16 -6.652606e-01
   outer loop
     vertex -1.067363e-01 -4.000000e-01  5.399133e-02
     vertex -1.067363e-01  3.000000e-01  5.399133e-02
     vertex -9.024847e-02  3.000000e-01  3.548730e-02
   endloop
 endfacet
 facet normal -8.574413e-01 -3.566568e-16 -5.145818e-01
   outer loop
     vertex -1.067363e-01 -4.000000e-01  5.399133e-02
     vertex -1.194897e-01 -4.000000e-01  7.524218e-02
     vertex -1.067363e-01  3.000000e-01  5.399133e-02
   endloop
 endfacet
 facet normal -6.096591e-01  2.056653e-16 -7.926637e-01
   outer loop
     vertex -9.024847e-02 -4.000000e-01  3.548730e-02
     vertex -9.024847e-02  3.000000e-01  3.548730e-02
     vertex -7.060307e-02  3.000000e-01  2.037750e-02
   endloop
 endfacet
 facet normal -7.466112e-01 -2.931715e-16 -6.652606e-01
   outer loop
     vertex -9.024847e-02 -4.000000e-01  3.548730e-02
     vertex -1.067363e-01 -4.000000e-01  5.399133e-02
     vertex -9.024847e-02  3.000000e-01  3.548730e-02
   endloop
 endfacet
 facet normal -4.513766e-01  1.596970e-16 -8.923335e-01
   outer loop
     vertex -7.060307e-02 -4.000000e-01  2.037750e-02
     vertex -7.060307e-02  3.000000e-01  2.037750e-02
     vertex -4.848746e-02  3.000000e-01  9.190567e-03
   endloop
 endfacet
 facet normal -6.096591e-01 -1.932820e-16 -7.926637e-01
   outer loop
     vertex -7.060307e-02 -4.000000e-01  2.037750e-02
     vertex -9.024847e-02 -4.000000e-01  3.548730e-02
     vertex -7.060307e-02  3.000000e-01  2.037750e-02
   endloop
 endfacet
 facet normal -2.773017e-01  7.603419e-17 -9.607829e-01
   outer loop
     vertex -4.848746e-02 -4.000000e-01  9.190567e-03
     vertex -4.848746e-02  3.000000e-01  9.190567e-03
     vertex -2.467539e-02  3.000000e-01  2.317916e-03
   endloop
 endfacet
 facet normal -4.513766e-01 -1.292071e-16 -8.923335e-01
   outer loop
     vertex -4.848746e-02 -4.000000e-01  9.190567e-03
     vertex -7.060307e-02 -4.000000e-01  2.037750e-02
     vertex -4.848746e-02  3.000000e-01  9.190567e-03
   endloop
 endfacet
 facet normal -2.773017e-01 -4.436846e-17 -9.607829e-01
   outer loop
     vertex -2.467539e-02 -4.000000e-01  2.317916e-03
     vertex -4.848746e-02 -4.000000e-01  9.190567e-03
     vertex -2.467539e-02  3.000000e-01  2.317916e-03
   endloop
 endfacet
 facet normal -9.352462e-02  5.068497e-17 -9.956170e-01
   outer loop
     vertex -3.855041e-16 -4.000000e-01  0.000000e+00
     vertex -2.467539e-02  3.000000e-01  2.317916e-03
     vertex -6.144303e-18  3.000000e-01  0.000000e+00
   endloop
 endfacet
 facet normal -9.352462e-02  1.171768e-17 -9.956170e-01
   outer loop
     vertex -3.855041e-16 -4.000000e-01  0.000000e+00
     vertex -2.467539e-02 -4.000000e-01  2.317916e-03
     vertex -2.467539e-02  3.000000e-01  2.317916e-03
   endloop
 endfacet
 facet normal  9.352462e-02  1.409092e-16 -9.956170e-01
   outer loop
     vertex  2.467539e-02 -4.000000e-01  2.317916e-03
     vertex -6.144303e-18  3.000000e-01  0.000000e+00
     vertex  2.467539e-02  3.000000e-01  2.317916e-03
   endloop
 endfacet
 facet normal  9.352462e-02 -5.038603e-17 -9.956170e-01
   outer loop
     vertex  2.467539e-02 -4.000000e-01  2.317916e-03
     vertex -3.855041e-16 -4.000000e-01  0.000000e+00
     vertex -6.144303e-18  3.000000e-01  0.000000e+00
   endloop
 endfacet
 facet normal  2.773017e-01  2.019345e-16 -9.607829e-01
   outer loop
     vertex  4.848746e-02 -4.000000e-01  9.190567e-03
     vertex  2.467539e-02  3.000000e-01  2.317916e-03
     vertex  4.848746e-02  3.000000e-01  9.190567e-03
   endloop
 endfacet
 facet normal  2.773017e-01 -5.624487e-17 -9.607829e-01
   outer loop
     vertex  4.848746e-02 -4.000000e-01  9.190567e-03
     vertex  2.467539e-02 -4.000000e-01  2.317916e-03
     vertex  2.467539e-02  3.000000e-01  2.317916e-03
   endloop
 endfacet
 facet normal  4.513766e-01  2.977123e-16 -8.923335e-01
   outer loop
     vertex  7.060307e-02 -4.000000e-01  2.037750e-02
     vertex  4.848746e-02  3.000000e-01  9.190567e-03
     vertex  7.060307e-02  3.000000e-01  2.037750e-02
   endloop
 endfacet
 facet normal  4.513766e-01 -1.499863e-16 -8.923335e-01
   outer loop
     vertex  7.060307e-02 -4.000000e-01  2.037750e-02
     vertex  4.848746e-02 -4.000000e-01  9.190567e-03
     vertex  4.848746e-02  3.000000e-01  9.190567e-03
   endloop
 endfacet
 facet normal  6.096591e-01  3.652823e-16 -7.926637e-01
   outer loop
     vertex  9.024847e-02 -4.000000e-01  3.548730e-02
     vertex  7.060307e-02  3.000000e-01  2.037750e-02
     vertex  9.024847e-02  3.000000e-01  3.548730e-02
   endloop
 endfacet
 facet normal  6.096591e-01 -2.124806e-16 -7.926637e-01
   outer loop
     vertex  9.024847e-02 -4.000000e-01  3.548730e-02
     vertex  7.060307e-02 -4.000000e-01  2.037750e-02
     vertex  7.060307e-02  3.000000e-01  2.037750e-02
   endloop
 endfacet
 facet normal  7.466112e-01  4.629773e-16 -6.652606e-01
   outer loop
     vertex  1.067363e-01 -4.000000e-01  5.399133e-02
     vertex  9.024847e-02  3.000000e-01  3.548730e-02
     vertex  1.067363e-01  3.000000e-01  5.399133e-02
   endloop
 endfacet
 facet normal  7.466112e-01 -3.030974e-16 -6.652606e-01
   outer loop
     vertex  1.067363e-01 -4.000000e-01  5.399133e-02
     vertex  9.024847e-02 -4.000000e-01  3.548730e-02
     vertex  9.024847e-02  3.000000e-01  3.548730e-02
   endloop
 endfacet
 facet normal  8.574413e-01  5.275298e-16 -5.145818e-01
   outer loop
     vertex  1.194897e-01 -4.000000e-01  7.524218e-02
     vertex  1.067363e-01  3.000000e-01  5.399133e-02
     vertex  1.194897e-01  3.000000e-01  7.524218e-02
   endloop
 endfacet
 facet normal  8.574413e-01 -3.624670e-16 -5.145818e-01
   outer loop
     vertex  1.194897e-01 -4.000000e-01  7.524218e-02
     vertex  1.067363e-01 -4.000000e-01  5.399133e-02
     vertex  1.067363e-01  3.000000e-01  5.399133e-02
   endloop
 endfacet
 facet normal  9.382717e-01  5.268095e-16 -3.458991e-01
   outer loop
     vertex  1.280625e-01 -4.000000e-01  9.849632e-02
     vertex  1.194897e-01  3.000000e-01  7.524218e-02
     vertex  1.280625e-01  3.000000e-01  9.849632e-02
   endloop
 endfacet
 facet normal  9.382717e-01 -4.562084e-16 -3.458991e-01
   outer loop
     vertex  1.280625e-01 -4.000000e-01  9.849632e-02
     vertex  1.194897e-01 -4.000000e-01  7.524218e-02
     vertex  1.194897e-01  3.000000e-01  7.524218e-02
   endloop
 endfacet
 facet normal  0.000000e+00  0.000000e+00 -1.000000e+00
   outer loop
     vertex -1.325000e-01  3.000000e-01  1.325000e-01
     vertex -4.179403e-01  4.154403e-02  1.325000e-01
     vertex -4.113169e-01  8.496107e-02  1.325000e-01
   endloop
 endfacet
 facet normal  0.000000e+00  0.000000e+00 -1.000000e+00
   outer loop
     vertex -1.325000e-01  3.000000e-01  1.325000e-01
     vertex -4.113169e-01  8.496107e-02  1.325000e-01
     vertex -4.001959e-01  1.274491e-01  1.325000e-01
   endloop
 endfacet
 facet normal  0.000000e+00  0.000000e+00 -1.000000e+00
   outer loop
     vertex -1.325000e-01  3.000000e-01  1.325000e-01
     vertex -4.001959e-01  1.274491e-01  1.325000e-01
     vertex -3.846987e-01  1.685434e-01  1.325000e-01
   endloop
 endfacet
 facet normal  0.000000e+00  0.000000e+00 -1.000000e+00
   outer loop
     vertex -1.325000e-01  3.000000e-01  1.325000e-01
     vertex -3.846987e-01  1.685434e-01  1.325000e-01
     vertex -3.649950e-01  2.077948e-01  1.325000e-01
   endloop
 endfacet
 facet normal  0.000000e+00  0.000000e+00 -1.000000e+00
   outer loop
     vertex -1.325000e-01  3.000000e-01  1.325000e-01
     vertex -3.649950e-01  2.077948e-01  1.325000e-01
     vertex -3.413000e-01  2.447739e-01  1.325000e-01
   endloop
 endfacet
 facet normal  0.000000e+00  0.000000e+00 -1.000000e+00
   outer loop
     vertex -1.325000e-01  3.000000e-01  1.325000e-01
     vertex -3.413000e-01  2.447739e-01  1.325000e-01
     vertex -3.138730e-01  2.790765e-01  1.325000e-01
   endloop
 endfacet
 facet normal -0.000000e+00  0.000000e+00 -1.000000e+00
   outer loop
     vertex -1.325000e-01  3.000000e-01  1.325000e-01
     vertex -3.138730e-01  2.790765e-01  1.325000e-01
     vertex -2.830139e-01  3.103275e-01  1.325000e-01
   endloop
 endfacet
 facet normal  0.000000e+00  0.000000e+00 -1.000000e+00
   outer loop
     vertex -1.325000e-01  3.000000e-01  1.325000e-01
     vertex -2.830139e-01  3.103275e-01  1.325000e-01
     vertex -2.490600e-01  3.381850e-01  1.325000e-01
   endloop
 endfacet
 facet normal  0.000000e+00  0.000000e+00 -1.000000e+00
   outer loop
     vertex -1.325000e-01  3.000000e-01  1.325000e-01
     vertex -2.490600e-01  3.381850e-01  1.325000e-01
     vertex -2.123827e-01  3.623446e-01  1.325000e-01
   endloop
 endfacet
 facet normal -1.351605e-15  1.339806e-30 -1.000000e+00
   outer loop
     vertex -1.280625e-01  3.000000e-01  1.325000e-01
     vertex -1.280625e-01 -4.000000e-01  1.325000e-01
     vertex -1.691330e-01 -3.844399e-01  1.325000e-01
   endloop
 endfacet
 facet normal -3.966987e-17 -7.872406e-17 -1.000000e+00
   outer loop
     vertex -1.280625e-01  3.000000e-01  1.325000e-01
     vertex -1.691330e-01 -3.844399e-01  1.325000e-01
     vertex -2.083541e-01 -3.646760e-01  1.325000e-01
   endloop
 endfacet
 facet normal -4.982529e-17 -7.749731e-17 -1.000000e+00
   outer loop
     vertex -1.280625e-01  3.000000e-01  1.325000e-01
     vertex -2.083541e-01 -3.646760e-01  1.325000e-01
     vertex -2.452969e-01 -3.409244e-01  1.325000e-01
   endloop
 endfacet
 facet normal -6.058083e-17 -7.552996e-17 -1.000000e+00
   outer loop
     vertex -1.280625e-01  3.000000e-01  1.325000e-01
     vertex -2.452969e-01 -3.409244e-01  1.325000e-01
     vertex -2.795574e-01 -3.134448e-01  1.325000e-01
   endloop
 endfacet
 facet normal -7.201517e-17 -7.270616e-17 -1.000000e+00
   outer loop
     vertex -1.280625e-01  3.000000e-01  1.325000e-01
     vertex -2.795574e-01 -3.134448e-01  1.325000e-01
     vertex -3.107610e-01 -2.825378e-01  1.325000e-01
   endloop
 endfacet
 facet normal -8.421616e-17 -6.887962e-17 -1.000000e+00
   outer loop
     vertex -1.280625e-01  3.000000e-01  1.325000e-01
     vertex -3.107610e-01 -2.825378e-01  1.325000e-01
     vertex -3.385665e-01 -2.485412e-01  1.325000e-01
   endloop
 endfacet
 facet normal -9.728107e-17 -6.386594e-17 -1.000000e+00
   outer loop
     vertex -1.280625e-01  3.000000e-01  1.325000e-01
     vertex -3.385665e-01 -2.485412e-01  1.325000e-01
     vertex -3.626697e-01 -2.118269e-01  1.325000e-01
   endloop
 endfacet
 facet normal -1.113161e-16 -5.743268e-17 -1.000000e+00
   outer loop
     vertex -1.280625e-01  3.000000e-01  1.325000e-01
     vertex -3.626697e-01 -2.118269e-01  1.325000e-01
     vertex -3.828073e-01 -1.727963e-01  1.325000e-01
   endloop
 endfacet
 facet normal -1.264342e-16 -4.928697e-17 -1.000000e+00
   outer loop
     vertex -1.280625e-01  3.000000e-01  1.325000e-01
     vertex -3.828073e-01 -1.727963e-01  1.325000e-01
     vertex -3.987589e-01 -1.318763e-01  1.325000e-01
   endloop
 endfacet
 facet normal -1.427508e-16 -3.905983e-17 -1.000000e+00
   outer loop
     vertex -1.280625e-01  3.000000e-01  1.325000e-01
     vertex -3.987589e-01 -1.318763e-01  1.325000e-01
     vertex -4.103501e-01 -8.951411e-02  1.325000e-01
   endloop
 endfacet
 facet normal -1.603749e-16 -2.628740e-17 -1.000000e+00
   outer loop
     vertex -1.280625e-01  3.000000e-01  1.325000e-01
     vertex -4.103501e-01 -8.951411e-02  1.325000e-01
     vertex -4.174542e-01 -4.617314e-02  1.325000e-01
   endloop
 endfacet
 facet normal -1.793922e-16 -1.038942e-17 -1.000000e+00
   outer loop
     vertex -1.280625e-01  3.000000e-01  1.325000e-01
     vertex -4.174542e-01 -4.617314e-02  1.325000e-01
     vertex -4.199936e-01 -2.327278e-03  1.325000e-01
   endloop
 endfacet
 facet normal -1.998374e-16  9.352735e-18 -1.000000e+00
   outer loop
     vertex -1.280625e-01  3.000000e-01  1.325000e-01
     vertex -4.199936e-01 -2.327278e-03  1.325000e-01
     vertex -4.179403e-01  4.154403e-02  1.325000e-01
   endloop
 endfacet
 facet normal -1.250951e-14  1.381558e-14 -1.000000e+00
   outer loop
     vertex -1.280625e-01  3.000000e-01  1.325000e-01
     vertex -4.179403e-01  4.154403e-02  1.325000e-01
     vertex -1.325000e-01  3.000000e-01  1.325000e-01
   endloop
 endfacet
 facet normal  0.000000e+00 -0.000000e+00 -1.000000e+00
   outer loop
     vertex -1.733831e-01  3.825419e-01  1.325000e-01
     vertex -1.325000e-01  3.000000e-01  1.325000e-01
     vertex -2.123827e-01  3.623446e-01  1.325000e-01
   endloop
 endfacet
 facet normal  0.000000e+00  0.000000e+00 -1.000000e+00
   outer loop
     vertex -1.324875e-01  3.985562e-01  1.325000e-01
     vertex -1.325000e-01  3.000000e-01  1.325000e-01
     vertex -1.733831e-01  3.825419e-01  1.325000e-01
   endloop
 endfacet
 facet normal -0.000000e+00 -1.000000e+00  0.000000e+00
   outer loop
     vertex -1.280625e-01  3.000000e-01  1.325000e-01
     vertex -1.325000e-01  3.000000e-01  1.325000e-01
     vertex -1.320045e-01  3.000000e-01  1.210515e-01
   endloop
 endfacet
 facet normal  0.000000e+00 -1.000000e+00  0.000000e+00
   outer loop
     vertex -1.280625e-01  3.000000e-01  1.325000e-01
     vertex -1.305216e-01  3.000000e-01  1.096886e-01
     vertex -1.280625e-01  3.000000e-01  9.849632e-02
   endloop
 endfacet
 facet normal  0.000000e+00 -1.000000e+00  0.000000e+00
   outer loop
     vertex -1.280625e-01  3.000000e-01  1.325000e-01
     vertex -1.320045e-01  3.000000e-01  1.210515e-01
     vertex -1.305216e-01  3.000000e-01  1.096886e-01
   endloop
 endfacet
 facet normal  1.771306e-14 -1.000000e+00  6.530018e-15
   outer loop
     vertex -1.280625e-01 -4.000000e-01  1.325000e-01
     vertex -1.280625e-01 -4.000000e-01  9.849632e-02
     vertex -1.194897e-01 -4.000000e-01  7.524218e-02
   endloop
 endfacet
 facet normal  8.609804e-15 -1.000000e+00  5.167058e-15
   outer loop
     vertex -1.280625e-01 -4.000000e-01  1.325000e-01
     vertex -1.194897e-01 -4.000000e-01  7.524218e-02
     vertex -1.067363e-01 -4.000000e-01  5.399133e-02
   endloop
 endfacet
 facet normal  4.566169e-15 -1.000000e+00  4.068640e-15
   outer loop
     vertex -1.280625e-01 -4.000000e-01  1.325000e-01
     vertex -1.067363e-01 -4.000000e-01  5.399133e-02
     vertex -9.024847e-02 -4.000000e-01  3.548730e-02
   endloop
 endfacet
 facet normal  2.514106e-15 -1.000000e+00  3.268779e-15
   outer loop
     vertex -1.280625e-01 -4.000000e-01  1.325000e-01
     vertex -9.024847e-02 -4.000000e-01  3.548730e-02
     vertex -7.060307e-02 -4.000000e-01  2.037750e-02
   endloop
 endfacet
 facet normal  1.352303e-15 -1.000000e+00  2.673390e-15
   outer loop
     vertex -1.280625e-01 -4.000000e-01  1.325000e-01
     vertex -7.060307e-02 -4.000000e-01  2.037750e-02
     vertex -4.848746e-02 -4.000000e-01  9.190567e-03
   endloop
 endfacet
 facet normal  6.386792e-16 -1.000000e+00  2.212868e-15
   outer loop
     vertex -1.280625e-01 -4.000000e-01  1.325000e-01
     vertex -4.848746e-02 -4.000000e-01  9.190567e-03
     vertex -2.467539e-02 -4.000000e-01  2.317916e-03
   endloop
 endfacet
 facet normal  1.731386e-16 -1.000000e+00  1.843148e-15
   outer loop
     vertex -1.280625e-01 -4.000000e-01  1.325000e-01
     vertex -2.467539e-02 -4.000000e-01  2.317916e-03
     vertex -3.855041e-16 -4.000000e-01  0.000000e+00
   endloop
 endfacet
 facet normal  0.000000e+00 -1.000000e+00  0.000000e+00
   outer loop
     vertex  1.280625e-01 -4.000000e-01  1.325000e-01
     vertex -3.855041e-16 -4.000000e-01  0.000000e+00
     vertex  2.467539e-02 -4.000000e-01  2.317916e-03
   endloop
 endfacet
 facet normal  0.000000e+00 -1.000000e+00  0.000000e+00
   outer loop
     vertex  1.280625e-01 -4.000000e-01  1.325000e-01
     vertex  2.467539e-02 -4.000000e-01  2.317916e-03
     vertex  4.848746e-02 -4.000000e-01  9.190567e-03
   endloop
 endfacet
 facet normal  0.000000e+00 -1.000000e+00  0.000000e+00
   outer loop
     vertex  1.280625e-01 -4.000000e-01  1.325000e-01
     vertex  4.848746e-02 -4.000000e-01  9.190567e-03
     vertex  7.060307e-02 -4.000000e-01  2.037750e-02
   endloop
 endfacet
 facet normal  0.000000e+00 -1.000000e+00  0.000000e+00
   outer loop
     vertex  1.280625e-01 -4.000000e-01  1.325000e-01
     vertex  7.060307e-02 -4.000000e-01  2.037750e-02
     vertex  9.024847e-02 -4.000000e-01  3.548730e-02
   endloop
 endfacet
 facet normal  0.000000e+00 -1.000000e+00  0.000000e+00
   outer loop
     vertex  1.280625e-01 -4.000000e-01  1.325000e-01
     vertex  9.024847e-02 -4.000000e-01  3.548730e-02
     vertex  1.067363e-01 -4.000000e-01  5.399133e-02
   endloop
 endfacet
 facet normal  0.000000e+00 -1.000000e+00  0.000000e+00
   outer loop
     vertex  1.280625e-01 -4.000000e-01  1.325000e-01
     vertex  1.067363e-01 -4.000000e-01  5.399133e-02
     vertex  1.194897e-01 -4.000000e-01  7.524218e-02
   endloop
 endfacet
 facet normal  0.000000e+00 -1.000000e+00 -0.000000e+00
   outer loop
     vertex  1.280625e-01 -4.000000e-01  1.325000e-01
     vertex  1.194897e-01 -4.000000e-01  7.524218e-02
     vertex  1.280625e-01 -4.000000e-01  9.849632e-02
   endloop
 endfacet
 facet normal -8.669385e-16 -1.000000e+00  8.379042e-16
   outer loop
     vertex  1.280625e-01 -4.000000e-01  1.325000e-01
     vertex -1.280625e-01 -4.000000e-01  1.325000e-01
     vertex -3.855041e-16 -4.000000e-01  0.000000e+00
   endloop
 endfacet
 facet normal  1.803986e-16 -9.486809e-18 -1.000000e+00
   outer loop
     vertex  1.280625e-01  3.000000e-01  1.325000e-01
     vertex  4.200000e-01  1.006164e-17  1.325000e-01
     vertex  4.176834e-01 -4.405214e-02  1.325000e-01
   endloop
 endfacet
 facet normal  1.612273e-16 -2.562504e-17 -1.000000e+00
   outer loop
     vertex  1.280625e-01  3.000000e-01  1.325000e-01
     vertex  4.176834e-01 -4.405214e-02  1.325000e-01
     vertex  4.107591e-01 -8.761831e-02  1.325000e-01
   endloop
 endfacet
 facet normal  1.434648e-16 -3.857953e-17 -1.000000e+00
   outer loop
     vertex  1.280625e-01  3.000000e-01  1.325000e-01
     vertex  4.107591e-01 -8.761831e-02  1.325000e-01
     vertex  3.993035e-01 -1.302179e-01  1.325000e-01
   endloop
 endfacet
 facet normal  1.270256e-16 -4.894404e-17 -1.000000e+00
   outer loop
     vertex  1.280625e-01  3.000000e-01  1.325000e-01
     vertex  3.993035e-01 -1.302179e-01  1.325000e-01
     vertex  3.834430e-01 -1.713810e-01  1.325000e-01
   endloop
 endfacet
 facet normal  1.117998e-16 -5.719290e-17 -1.000000e+00
   outer loop
     vertex  1.280625e-01  3.000000e-01  1.325000e-01
     vertex  3.834430e-01 -1.713810e-01  1.325000e-01
     vertex  3.633526e-01 -2.106536e-01  1.325000e-01
   endloop
 endfacet
 facet normal  9.767073e-17 -6.370307e-17 -1.000000e+00
   outer loop
     vertex  1.280625e-01  3.000000e-01  1.325000e-01
     vertex  3.633526e-01 -2.106536e-01  1.325000e-01
     vertex  3.392538e-01 -2.476023e-01  1.325000e-01
   endloop
 endfacet
 facet normal  8.452352e-17 -6.877349e-17 -1.000000e+00
   outer loop
     vertex  1.280625e-01  3.000000e-01  1.325000e-01
     vertex  3.392538e-01 -2.476023e-01  1.325000e-01
     vertex  3.114125e-01 -2.818195e-01  1.325000e-01
   endloop
 endfacet
 facet normal  7.225042e-17 -7.264114e-17 -1.000000e+00
   outer loop
     vertex  1.280625e-01  3.000000e-01  1.325000e-01
     vertex  3.114125e-01 -2.818195e-01  1.325000e-01
     vertex  2.801359e-01 -3.129279e-01  1.325000e-01
   endloop
 endfacet
 facet normal  6.075264e-17 -7.549385e-17 -1.000000e+00
   outer loop
     vertex  1.280625e-01  3.000000e-01  1.325000e-01
     vertex  2.801359e-01 -3.129279e-01  1.325000e-01
     vertex  2.457690e-01 -3.405842e-01  1.325000e-01
   endloop
 endfacet
 facet normal  4.994098e-17 -7.748048e-17 -1.000000e+00
   outer loop
     vertex  1.280625e-01  3.000000e-01  1.325000e-01
     vertex  2.457690e-01 -3.405842e-01  1.325000e-01
     vertex  2.086908e-01 -3.644834e-01  1.325000e-01
   endloop
 endfacet
 facet normal  3.973561e-17 -7.871880e-17 -1.000000e+00
   outer loop
     vertex  1.280625e-01  3.000000e-01  1.325000e-01
     vertex  2.086908e-01 -3.644834e-01  1.325000e-01
     vertex  1.693105e-01 -3.843617e-01  1.325000e-01
   endloop
 endfacet
 facet normal  1.345788e-15 -1.387402e-30 -1.000000e+00
   outer loop
     vertex  1.280625e-01  3.000000e-01  1.325000e-01
     vertex  1.693105e-01 -3.843617e-01  1.325000e-01
     vertex  1.280625e-01 -4.000000e-01  1.325000e-01
   endloop
 endfacet
 facet normal  6.254756e-15  6.851424e-15 -1.000000e+00
   outer loop
     vertex  4.177239e-01  4.366638e-02  1.325000e-01
     vertex  1.280625e-01  3.000000e-01  1.325000e-01
     vertex  1.325000e-01  3.000000e-01  1.325000e-01
   endloop
 endfacet
 facet normal  2.009090e-16  1.047238e-17 -1.000000e+00
   outer loop
     vertex  4.177239e-01  4.366638e-02  1.325000e-01
     vertex  4.200000e-01  1.006164e-17  1.325000e-01
     vertex  1.280625e-01  3.000000e-01  1.325000e-01
   endloop
 endfacet
 facet normal  1.133589e-16  1.785600e-17 -1.000000e+00
   outer loop
     vertex  4.109202e-01  8.685947e-02  1.325000e-01
     vertex  4.177239e-01  4.366638e-02  1.325000e-01
     vertex  1.325000e-01  3.000000e-01  1.325000e-01
   endloop
 endfacet
 facet normal  1.252331e-16  3.336692e-17 -1.000000e+00
   outer loop
     vertex  3.996628e-01  1.291111e-01  1.325000e-01
     vertex  4.109202e-01  8.685947e-02  1.325000e-01
     vertex  1.325000e-01  3.000000e-01  1.325000e-01
   endloop
 endfacet
 facet normal  1.374369e-16  5.244606e-17 -1.000000e+00
   outer loop
     vertex  3.840735e-01  1.699634e-01  1.325000e-01
     vertex  3.996628e-01  1.291111e-01  1.325000e-01
     vertex  1.325000e-01  3.000000e-01  1.325000e-01
   endloop
 endfacet
 facet normal  1.102109e-16  2.816357e-16 -1.000000e+00
   outer loop
     vertex  1.732064e-01  3.826219e-01  1.325000e-01
     vertex  1.325000e-01  3.000000e-01  1.325000e-01
     vertex  1.324875e-01  3.985562e-01  1.325000e-01
   endloop
 endfacet
 facet normal  1.494391e-16  7.566592e-17 -1.000000e+00
   outer loop
     vertex  3.643214e-01  2.089735e-01  1.325000e-01
     vertex  3.840735e-01  1.699634e-01  1.325000e-01
     vertex  1.325000e-01  3.000000e-01  1.325000e-01
   endloop
 endfacet
 facet normal  1.384218e-16  2.677367e-16 -1.000000e+00
   outer loop
     vertex  2.120480e-01  3.625405e-01  1.325000e-01
     vertex  1.325000e-01  3.000000e-01  1.325000e-01
     vertex  1.732064e-01  3.826219e-01  1.325000e-01
   endloop
 endfacet
 facet normal  1.603361e-16  1.034178e-16 -1.000000e+00
   outer loop
     vertex  3.406206e-01  2.457186e-01  1.325000e-01
     vertex  3.643214e-01  2.089735e-01  1.325000e-01
     vertex  1.325000e-01  3.000000e-01  1.325000e-01
   endloop
 endfacet
 facet normal  1.588469e-16  2.417571e-16 -1.000000e+00
   outer loop
     vertex  2.485913e-01  3.385297e-01  1.325000e-01
     vertex  1.325000e-01  3.000000e-01  1.325000e-01
     vertex  2.120480e-01  3.625405e-01  1.325000e-01
   endloop
 endfacet
 facet normal  1.687342e-16  1.356171e-16 -1.000000e+00
   outer loop
     vertex  3.132279e-01  2.798005e-01  1.325000e-01
     vertex  3.406206e-01  2.457186e-01  1.325000e-01
     vertex  1.325000e-01  3.000000e-01  1.325000e-01
   endloop
 endfacet
 facet normal  1.700627e-16  2.079636e-16 -1.000000e+00
   outer loop
     vertex  2.824402e-01  3.108497e-01  1.325000e-01
     vertex  1.325000e-01  3.000000e-01  1.325000e-01
     vertex  2.485913e-01  3.385297e-01  1.325000e-01
   endloop
 endfacet
 facet normal  1.727183e-16  1.712633e-16 -1.000000e+00
   outer loop
     vertex  2.824402e-01  3.108497e-01  1.325000e-01
     vertex  3.132279e-01  2.798005e-01  1.325000e-01
     vertex  1.325000e-01  3.000000e-01  1.325000e-01
   endloop
 endfacet
 facet normal  0.000000e+00 -1.000000e+00  0.000000e+00
   outer loop
     vertex  1.280625e-01  3.000000e-01  1.325000e-01
     vertex  1.305216e-01  3.000000e-01  1.096886e-01
     vertex  1.320045e-01  3.000000e-01  1.210515e-01
   endloop
 endfacet
 facet normal  0.000000e+00 -1.000000e+00  0.000000e+00
   outer loop
     vertex  1.280625e-01  3.000000e-01  1.325000e-01
     vertex  1.280625e-01  3.000000e-01  9.849632e-02
     vertex  1.305216e-01  3.000000e-01  1.096886e-01
   endloop
 endfacet
 facet normal  0.000000e+00 -1.000000e+00  0.000000e+00
   outer loop
     vertex  1.325000e-01  3.000000e-01  1.325000e-01
     vertex  1.280625e-01  3.000000e-01  1.325000e-01
     vertex  1.320045e-01  3.000000e-01  1.210515e-01
   endloop
 endfacet
 facet normal -4.346736e-30 -5.013892e-15 -1.000000e+00
   outer loop
     vertex  1.280625e-01 -4.000000e-01  1.325000e-01
     vertex  8.614086e-02 -4.110715e-01  1.325000e-01
     vertex -1.280625e-01 -4.000000e-01  1.325000e-01
   endloop
 endfacet
 facet normal  1.947108e-16 -1.246758e-15 -1.000000e+00
   outer loop
     vertex  8.614086e-02 -4.110715e-01  1.325000e-01
     vertex  4.330117e-02 -4.177619e-01  1.325000e-01
     vertex -1.280625e-01 -4.000000e-01  1.325000e-01
   endloop
 endfacet
 facet normal  1.077868e-16 -2.085386e-15 -1.000000e+00
   outer loop
     vertex  4.330117e-02 -4.177619e-01  1.325000e-01
     vertex -2.540586e-16 -4.200000e-01  1.325000e-01
     vertex -1.280625e-01 -4.000000e-01  1.325000e-01
   endloop
 endfacet
 facet normal -2.144248e-16 -4.148546e-15 -1.000000e+00
   outer loop
     vertex -2.540586e-16 -4.200000e-01  1.325000e-01
     vertex -4.330117e-02 -4.177619e-01  1.325000e-01
     vertex -1.280625e-01 -4.000000e-01  1.325000e-01
   endloop
 endfacet
 facet normal -1.916136e-15 -1.226925e-14 -1.000000e+00
   outer loop
     vertex -4.330117e-02 -4.177619e-01  1.325000e-01
     vertex -8.614086e-02 -4.110715e-01  1.325000e-01
     vertex -1.280625e-01 -4.000000e-01  1.325000e-01
   endloop
 endfacet
 facet normal -1.000000e+00 -1.308477e-15 -2.040631e-14
   outer loop
     vertex -1.280625e-01 -4.000000e-01  1.325000e-01
     vertex -1.280625e-01  3.000000e-01  9.849632e-02
     vertex -1.280625e-01 -4.000000e-01  9.849632e-02
   endloop
 endfacet
 facet normal -1.000000e+00  9.912706e-16  2.693632e-14
   outer loop
     vertex -1.280625e-01 -4.000000e-01  1.325000e-01
     vertex -1.280625e-01  3.000000e-01  1.325000e-01
     vertex -1.280625e-01  3.000000e-01  9.849632e-02
   endloop
 endfacet
 facet normal  9.986201e-01 -5.251549e-02 -2.877967e-19
   outer loop
     vertex  4.176834e-01 -4.405214e-02  1.325000e-01
     vertex  4.200000e-01  1.006164e-17  1.325000e-01
     vertex  4.200000e-01  0.000000e+00  1.200000e+00
   endloop
 endfacet
 facet normal  9.985827e-01 -5.322217e-02  2.924390e-05
   outer loop
     vertex  4.176834e-01 -4.405214e-02  1.325000e-01
     vertex  4.200000e-01  0.000000e+00  1.200000e+00
     vertex  4.176206e-01 -4.464326e-02  1.200000e+00
   endloop
 endfacet
 facet normal  9.872684e-01 -1.590635e-01  5.770071e-05
   outer loop
     vertex  4.107591e-01 -8.761831e-02  1.325000e-01
     vertex  4.176206e-01 -4.464326e-02  1.200000e+00
     vertex  4.105094e-01 -8.878070e-02  1.200000e+00
   endloop
 endfacet
 facet normal  9.876038e-01 -1.569671e-01 -2.885036e-05
   outer loop
     vertex  4.107591e-01 -8.761831e-02  1.325000e-01
     vertex  4.176834e-01 -4.405214e-02  1.325000e-01
     vertex  4.176206e-01 -4.464326e-02  1.200000e+00
   endloop
 endfacet
 facet normal  9.647679e-01 -2.631026e-01  8.537035e-05
   outer loop
     vertex  3.993035e-01 -1.302179e-01  1.325000e-01
     vertex  4.105094e-01 -8.878070e-02  1.200000e+00
     vertex  3.987470e-01 -1.319122e-01  1.200000e+00
   endloop
 endfacet
 facet normal  9.656928e-01 -2.596872e-01 -5.691359e-05
   outer loop
     vertex  3.993035e-01 -1.302179e-01  1.325000e-01
     vertex  4.107591e-01 -8.761831e-02  1.325000e-01
     vertex  4.105094e-01 -8.878070e-02  1.200000e+00
   endloop
 endfacet
 facet normal  9.313362e-01 -3.641606e-01  1.122528e-04
   outer loop
     vertex  3.834430e-01 -1.713810e-01  1.325000e-01
     vertex  3.987470e-01 -1.319122e-01  1.200000e+00
     vertex  3.824666e-01 -1.735491e-01  1.200000e+00
   endloop
 endfacet
 facet normal  9.331287e-01 -3.595425e-01 -8.418963e-05
   outer loop
     vertex  3.834430e-01 -1.713810e-01  1.325000e-01
     vertex  3.993035e-01 -1.302179e-01  1.325000e-01
     vertex  3.987470e-01 -1.319122e-01  1.200000e+00
   endloop
 endfacet
 facet normal  8.873521e-01 -4.610925e-01  1.383479e-04
   outer loop
     vertex  3.633526e-01 -2.106536e-01  1.325000e-01
     vertex  3.824666e-01 -1.735491e-01  1.200000e+00
     vertex  3.618527e-01 -2.132196e-01  1.200000e+00
   endloop
 endfacet
 facet normal  8.902708e-01 -4.554315e-01 -1.106784e-04
   outer loop
     vertex  3.633526e-01 -2.106536e-01  1.325000e-01
     vertex  3.834430e-01 -1.713810e-01  1.325000e-01
     vertex  3.824666e-01 -1.735491e-01  1.200000e+00
   endloop
 endfacet
 facet normal  8.333139e-01 -5.528001e-01  1.636558e-04
   outer loop
     vertex  3.392538e-01 -2.476023e-01  1.325000e-01
     vertex  3.618527e-01 -2.132196e-01  1.200000e+00
     vertex  3.371389e-01 -2.504743e-01  1.200000e+00
   endloop
 endfacet
 facet normal  8.375919e-01 -5.462965e-01 -1.363799e-04
   outer loop
     vertex  3.392538e-01 -2.476023e-01  1.325000e-01
     vertex  3.633526e-01 -2.106536e-01  1.325000e-01
     vertex  3.618527e-01 -2.132196e-01  1.200000e+00
   endloop
 endfacet
 facet normal  7.698340e-01 -6.382442e-01  1.881762e-04
   outer loop
     vertex  3.114125e-01 -2.818195e-01  1.325000e-01
     vertex  3.371389e-01 -2.504743e-01  1.200000e+00
     vertex  3.086051e-01 -2.848910e-01  1.200000e+00
   endloop
 endfacet
 facet normal  7.756731e-01 -6.311349e-01 -1.612941e-04
   outer loop
     vertex  3.114125e-01 -2.818195e-01  1.325000e-01
     vertex  3.392538e-01 -2.476023e-01  1.325000e-01
     vertex  3.371389e-01 -2.504743e-01  1.200000e+00
   endloop
 endfacet
 facet normal  6.976315e-01 -7.164567e-01  2.119093e-04
   outer loop
     vertex  2.801359e-01 -3.129279e-01  1.325000e-01
     vertex  3.086051e-01 -2.848910e-01  1.200000e+00
     vertex  2.765748e-01 -3.160797e-01  1.200000e+00
   endloop
 endfacet
 facet normal  7.051974e-01 -7.090110e-01 -1.854209e-04
   outer loop
     vertex  2.801359e-01 -3.129279e-01  1.325000e-01
     vertex  3.114125e-01 -2.818195e-01  1.325000e-01
     vertex  3.086051e-01 -2.848910e-01  1.200000e+00
   endloop
 endfacet
 facet normal  6.269423e-01 -7.790656e-01 -2.087602e-04
   outer loop
     vertex  2.457690e-01 -3.405842e-01  1.325000e-01
     vertex  2.801359e-01 -3.129279e-01  1.325000e-01
     vertex  2.765748e-01 -3.160797e-01  1.200000e+00
   endloop
 endfacet
 facet normal  6.175246e-01 -7.865515e-01  2.348549e-04
   outer loop
     vertex  2.457690e-01 -3.405842e-01  1.325000e-01
     vertex  2.765748e-01 -3.160797e-01  1.200000e+00
     vertex  2.414107e-01 -3.436872e-01  1.200000e+00
   endloop
 endfacet
 facet normal  5.417712e-01 -8.405260e-01 -2.313120e-04
   outer loop
     vertex  2.086908e-01 -3.644834e-01  1.325000e-01
     vertex  2.457690e-01 -3.405842e-01  1.325000e-01
     vertex  2.414107e-01 -3.436872e-01  1.200000e+00
   endloop
 endfacet
 facet normal  5.304209e-01 -8.477344e-01  2.570129e-04
   outer loop
     vertex  2.086908e-01 -3.644834e-01  1.325000e-01
     vertex  2.414107e-01 -3.436872e-01  1.200000e+00
     vertex  2.035114e-01 -3.674005e-01  1.200000e+00
   endloop
 endfacet
 facet normal  4.373073e-01 -8.993121e-01  2.783835e-04
   outer loop
     vertex  1.693105e-01 -3.843617e-01  1.325000e-01
     vertex  2.035114e-01 -3.674005e-01  1.200000e+00
     vertex  1.633062e-01 -3.869510e-01  1.200000e+00
   endloop
 endfacet
 facet normal  4.506234e-01 -8.927141e-01 -2.530763e-04
   outer loop
     vertex  1.693105e-01 -3.843617e-01  1.325000e-01
     vertex  2.086908e-01 -3.644834e-01  1.325000e-01
     vertex  2.035114e-01 -3.674005e-01  1.200000e+00
   endloop
 endfacet
 facet normal  3.392389e-01 -9.407002e-01  2.989664e-04
   outer loop
     vertex  1.280625e-01 -4.000000e-01  1.325000e-01
     vertex  1.633062e-01 -3.869510e-01  1.200000e+00
     vertex  1.212506e-01 -4.021173e-01  1.200000e+00
   endloop
 endfacet
 facet normal  3.545047e-01 -9.350542e-01 -2.740530e-04
   outer loop
     vertex  1.280625e-01 -4.000000e-01  1.325000e-01
     vertex  1.693105e-01 -3.843617e-01  1.325000e-01
     vertex  1.633062e-01 -3.869510e-01  1.200000e+00
   endloop
 endfacet
 facet normal  2.844917e-01 -9.586785e-01 -8.604044e-05
   outer loop
     vertex  1.114678e-01 -4.049382e-01  2.844492e-01
     vertex  1.280625e-01 -4.000000e-01  1.325000e-01
     vertex  1.212506e-01 -4.021173e-01  1.200000e+00
   endloop
 endfacet
 facet normal  2.649718e-01 -9.642562e-01  1.397189e-04
   outer loop
     vertex  1.097071e-01 -4.054187e-01  3.070596e-01
     vertex  1.114678e-01 -4.049382e-01  2.844492e-01
     vertex  1.212506e-01 -4.021173e-01  1.200000e+00
   endloop
 endfacet
 facet normal  2.735827e-01 -9.618475e-01 -1.380429e-03
   outer loop
     vertex  1.090977e-01 -4.055831e-01  2.641300e-01
     vertex  1.280625e-01 -4.000000e-01  1.325000e-01
     vertex  1.114678e-01 -4.049382e-01  2.844492e-01
   endloop
 endfacet
 facet normal  2.546258e-01 -9.670396e-01  2.837581e-04
   outer loop
     vertex  1.033978e-01 -4.070736e-01  3.289262e-01
     vertex  1.097071e-01 -4.054187e-01  3.070596e-01
     vertex  1.212506e-01 -4.021173e-01  1.200000e+00
   endloop
 endfacet
 facet normal  2.620542e-01 -9.650479e-01 -3.177157e-03
   outer loop
     vertex  1.029937e-01 -4.071760e-01  2.444879e-01
     vertex  1.280625e-01 -4.000000e-01  1.325000e-01
     vertex  1.090977e-01 -4.055831e-01  2.641300e-01
   endloop
 endfacet
 facet normal  2.373267e-01 -9.714297e-01  6.281569e-04
   outer loop
     vertex  9.271857e-02 -4.096380e-01  3.492151e-01
     vertex  1.212506e-01 -4.021173e-01  1.200000e+00
     vertex  7.782126e-02 -4.127273e-01  1.200000e+00
   endloop
 endfacet
 facet normal  2.347822e-01 -9.720477e-01  7.189503e-04
   outer loop
     vertex  9.271857e-02 -4.096380e-01  3.492151e-01
     vertex  1.033978e-01 -4.070736e-01  3.289262e-01
     vertex  1.212506e-01 -4.021173e-01  1.200000e+00
   endloop
 endfacet
 facet normal  2.033248e-01 -9.791113e-01  4.888635e-06
   outer loop
     vertex  7.804221e-02 -4.126856e-01  3.670183e-01
     vertex  9.271857e-02 -4.096380e-01  3.492151e-01
     vertex  7.782126e-02 -4.127273e-01  1.200000e+00
   endloop
 endfacet
 facet normal  2.553414e-01 -9.668391e-01 -4.794599e-03
   outer loop
     vertex  8.614086e-02 -4.110715e-01  1.325000e-01
     vertex  1.280625e-01 -4.000000e-01  1.325000e-01
     vertex  1.029937e-01 -4.071760e-01  2.444879e-01
   endloop
 endfacet
 facet normal  2.370239e-01 -9.715020e-01 -1.875823e-03
   outer loop
     vertex  8.614086e-02 -4.110715e-01  1.325000e-01
     vertex  1.029937e-01 -4.071760e-01  2.444879e-01
     vertex  9.328765e-02 -4.095088e-01  2.262083e-01
   endloop
 endfacet
 facet normal  2.059339e-01 -9.785657e-01  6.130983e-04
   outer loop
     vertex  8.029027e-02 -4.122541e-01  2.100021e-01
     vertex  8.614086e-02 -4.110715e-01  1.325000e-01
     vertex  9.328765e-02 -4.095088e-01  2.262083e-01
   endloop
 endfacet
 facet normal  1.327255e-01 -9.911526e-01  7.001721e-04
   outer loop
     vertex  6.001702e-02 -4.156897e-01  3.814516e-01
     vertex  7.782126e-02 -4.127273e-01  1.200000e+00
     vertex  3.351016e-02 -4.186610e-01  1.200000e+00
   endloop
 endfacet
 facet normal  1.643911e-01 -9.863952e-01 -5.803473e-06
   outer loop
     vertex  6.001702e-02 -4.156897e-01  3.814516e-01
     vertex  7.804221e-02 -4.126856e-01  3.670183e-01
     vertex  7.782126e-02 -4.127273e-01  1.200000e+00
   endloop
 endfacet
 facet normal  1.739763e-01 -9.847480e-01 -1.893700e-03
   outer loop
     vertex  6.450503e-02 -4.150170e-01  1.965134e-01
     vertex  8.614086e-02 -4.110715e-01  1.325000e-01
     vertex  8.029027e-02 -4.122541e-01  2.100021e-01
   endloop
 endfacet
 facet normal  1.212377e-01 -9.926235e-01  3.228262e-04
   outer loop
     vertex  4.166000e-02 -4.179287e-01  3.909809e-01
     vertex  6.001702e-02 -4.156897e-01  3.814516e-01
     vertex  3.351016e-02 -4.186610e-01  1.200000e+00
   endloop
 endfacet
 facet normal  1.300723e-01 -9.915043e-01 -5.692503e-04
   outer loop
     vertex  4.330117e-02 -4.177619e-01  1.325000e-01
     vertex  6.450503e-02 -4.150170e-01  1.965134e-01
     vertex  4.446105e-02 -4.176401e-01  1.852946e-01
   endloop
 endfacet
 facet normal  1.542975e-01 -9.879857e-01 -8.744498e-03
   outer loop
     vertex  4.330117e-02 -4.177619e-01  1.325000e-01
     vertex  8.614086e-02 -4.110715e-01  1.325000e-01
     vertex  6.450503e-02 -4.150170e-01  1.965134e-01
   endloop
 endfacet
 facet normal  7.577439e-02 -9.971250e-01 -1.392332e-04
   outer loop
     vertex  2.200740e-02 -4.194230e-01  3.969117e-01
     vertex  4.166000e-02 -4.179287e-01  3.909809e-01
     vertex  3.351016e-02 -4.186610e-01  1.200000e+00
   endloop
 endfacet
 facet normal  7.979064e-02 -9.968115e-01  5.476675e-04
   outer loop
     vertex  2.268435e-02 -4.193870e-01  1.784359e-01
     vertex  4.330117e-02 -4.177619e-01  1.325000e-01
     vertex  4.446105e-02 -4.176401e-01  1.852946e-01
   endloop
 endfacet
 facet normal  2.662052e-02 -9.996454e-01  6.103287e-04
   outer loop
     vertex  1.725043e-03 -4.199965e-01  3.991107e-01
     vertex  3.351016e-02 -4.186610e-01  1.200000e+00
     vertex -1.118062e-02 -4.198512e-01  1.200000e+00
   endloop
 endfacet
 facet normal  2.831969e-02 -9.995988e-01  5.428152e-04
   outer loop
     vertex  1.725043e-03 -4.199965e-01  3.991107e-01
     vertex  2.200740e-02 -4.194230e-01  3.969117e-01
     vertex  3.351016e-02 -4.186610e-01  1.200000e+00
   endloop
 endfacet
 facet normal  2.701506e-02 -9.996350e-01  1.121408e-15
   outer loop
     vertex -2.540586e-16 -4.200000e-01  1.325000e-01
     vertex  2.268435e-02 -4.193870e-01  1.784359e-01
     vertex -1.084425e-17 -4.200000e-01  1.761241e-01
   endloop
 endfacet
 facet normal  5.161401e-02 -9.985931e-01 -1.216152e-02
   outer loop
     vertex -2.540586e-16 -4.200000e-01  1.325000e-01
     vertex  4.330117e-02 -4.177619e-01  1.325000e-01
     vertex  2.268435e-02 -4.193870e-01  1.784359e-01
   endloop
 endfacet
 facet normal -2.271478e-02 -9.997420e-01 -1.846509e-04
   outer loop
     vertex -2.081236e-02 -4.194840e-01  3.971475e-01
     vertex  1.725043e-03 -4.199965e-01  3.991107e-01
     vertex -1.118062e-02 -4.198512e-01  1.200000e+00
   endloop
 endfacet
 facet normal -2.382558e-02 -9.997161e-01  1.404821e-15
   outer loop
     vertex -2.000773e-02 -4.195232e-01  1.779182e-01
     vertex -2.540586e-16 -4.200000e-01  1.325000e-01
     vertex -1.084425e-17 -4.200000e-01  1.761241e-01
   endloop
 endfacet
 facet normal -7.978609e-02 -9.968118e-01  6.138503e-04
   outer loop
     vertex -4.256500e-02 -4.178375e-01  3.906087e-01
     vertex -1.118062e-02 -4.198512e-01  1.200000e+00
     vertex -5.574472e-02 -4.162842e-01  1.200000e+00
   endloop
 endfacet
 facet normal -7.561027e-02 -9.971373e-01  4.511217e-04
   outer loop
     vertex -4.256500e-02 -4.178375e-01  3.906087e-01
     vertex -2.081236e-02 -4.194840e-01  3.971475e-01
     vertex -1.118062e-02 -4.198512e-01  1.200000e+00
   endloop
 endfacet
 facet normal -7.131266e-02 -9.974518e-01 -2.106193e-03
   outer loop
     vertex -4.330117e-02 -4.177619e-01  1.325000e-01
     vertex -2.000773e-02 -4.195232e-01  1.779182e-01
     vertex -3.939475e-02 -4.181484e-01  1.832546e-01
   endloop
 endfacet
 facet normal -5.161395e-02 -9.985919e-01 -1.225319e-02
   outer loop
     vertex -4.330117e-02 -4.177619e-01  1.325000e-01
     vertex -2.540586e-16 -4.200000e-01  1.325000e-01
     vertex -2.000773e-02 -4.195232e-01  1.779182e-01
   endloop
 endfacet
 facet normal -1.252768e-01 -9.921218e-01 -1.358977e-04
   outer loop
     vertex -6.269843e-02 -4.152938e-01  3.796712e-01
     vertex -4.256500e-02 -4.178375e-01  3.906087e-01
     vertex -5.574472e-02 -4.162842e-01  1.200000e+00
   endloop
 endfacet
 facet normal -1.852887e-01 -9.826839e-01  7.033755e-04
   outer loop
     vertex -8.032470e-02 -4.122474e-01  3.647010e-01
     vertex -5.574472e-02 -4.162842e-01  1.200000e+00
     vertex -9.967721e-02 -4.080006e-01  1.200000e+00
   endloop
 endfacet
 facet normal -1.705158e-01 -9.853549e-01  2.557509e-04
   outer loop
     vertex -8.032470e-02 -4.122474e-01  3.647010e-01
     vertex -6.269843e-02 -4.152938e-01  3.796712e-01
     vertex -5.574472e-02 -4.162842e-01  1.200000e+00
   endloop
 endfacet
 facet normal -2.069548e-01 -9.783505e-01  1.793737e-04
   outer loop
     vertex -9.331374e-02 -4.095028e-01  3.483102e-01
     vertex -8.032470e-02 -4.122474e-01  3.647010e-01
     vertex -9.967721e-02 -4.080006e-01  1.200000e+00
   endloop
 endfacet
 facet normal -1.667402e-01 -9.859956e-01 -3.219211e-03
   outer loop
     vertex -8.614086e-02 -4.110715e-01  1.325000e-01
     vertex -5.995989e-02 -4.156980e-01  1.934771e-01
     vertex -7.799505e-02 -4.126945e-01  2.077032e-01
   endloop
 endfacet
 facet normal -1.542975e-01 -9.879860e-01 -8.712618e-03
   outer loop
     vertex -8.614086e-02 -4.110715e-01  1.325000e-01
     vertex -4.330117e-02 -4.177619e-01  1.325000e-01
     vertex -5.995989e-02 -4.156980e-01  1.934771e-01
   endloop
 endfacet
 facet normal -2.336984e-01 -9.723091e-01 -3.109899e-05
   outer loop
     vertex -1.030267e-01 -4.071677e-01  3.298375e-01
     vertex -9.331374e-02 -4.095028e-01  3.483102e-01
     vertex -9.967721e-02 -4.080006e-01  1.200000e+00
   endloop
 endfacet
 facet normal -2.364341e-01 -9.716460e-01 -1.739189e-03
   outer loop
     vertex -1.033367e-01 -4.070891e-01  2.453216e-01
     vertex -8.614086e-02 -4.110715e-01  1.325000e-01
     vertex -9.265683e-02 -4.096520e-01  2.252601e-01
   endloop
 endfacet
 facet normal -2.886919e-01 -9.574219e-01  4.562283e-04
   outer loop
     vertex -1.091263e-01 -4.055754e-01  3.100345e-01
     vertex -9.967721e-02 -4.080006e-01  1.200000e+00
     vertex -1.424803e-01 -3.950941e-01  1.200000e+00
   endloop
 endfacet
 facet normal -2.527136e-01 -9.675411e-01  4.665903e-05
   outer loop
     vertex -1.091263e-01 -4.055754e-01  3.100345e-01
     vertex -1.030267e-01 -4.071677e-01  3.298375e-01
     vertex -9.967721e-02 -4.080006e-01  1.200000e+00
   endloop
 endfacet
 facet normal -2.718725e-01 -9.623326e-01  1.144420e-03
   outer loop
     vertex -1.114719e-01 -4.049370e-01  2.896304e-01
     vertex -1.091263e-01 -4.055754e-01  3.100345e-01
     vertex -1.424803e-01 -3.950941e-01  1.200000e+00
   endloop
 endfacet
 facet normal -2.553414e-01 -9.668391e-01 -4.790646e-03
   outer loop
     vertex -1.280625e-01 -4.000000e-01  1.325000e-01
     vertex -8.614086e-02 -4.110715e-01  1.325000e-01
     vertex -1.033367e-01 -4.070891e-01  2.453216e-01
   endloop
 endfacet
 facet normal -2.894743e-01 -9.571857e-01  4.892287e-04
   outer loop
     vertex -1.280625e-01 -4.000000e-01  1.325000e-01
     vertex -1.114719e-01 -4.049370e-01  2.896304e-01
     vertex -1.424803e-01 -3.950941e-01  1.200000e+00
   endloop
 endfacet
 facet normal -2.758332e-01 -9.612049e-01 -1.077352e-03
   outer loop
     vertex -1.280625e-01 -4.000000e-01  1.325000e-01
     vertex -1.096729e-01 -4.054280e-01  2.670427e-01
     vertex -1.114719e-01 -4.049370e-01  2.896304e-01
   endloop
 endfacet
 facet normal -2.630839e-01 -9.647684e-01 -2.963715e-03
   outer loop
     vertex -1.280625e-01 -4.000000e-01  1.325000e-01
     vertex -1.033367e-01 -4.070891e-01  2.453216e-01
     vertex -1.096729e-01 -4.054280e-01  2.670427e-01
   endloop
 endfacet
 facet normal -3.542887e-01 -9.351360e-01 -4.874996e-04
   outer loop
     vertex -1.691330e-01 -3.844399e-01  1.325000e-01
     vertex -1.280625e-01 -4.000000e-01  1.325000e-01
     vertex -1.424803e-01 -3.950941e-01  1.200000e+00
   endloop
 endfacet
 facet normal -3.888241e-01 -9.213119e-01  5.127316e-04
   outer loop
     vertex -1.691330e-01 -3.844399e-01  1.325000e-01
     vertex -1.424803e-01 -3.950941e-01  1.200000e+00
     vertex -1.836691e-01 -3.777111e-01  1.200000e+00
   endloop
 endfacet
 facet normal -4.500050e-01 -8.930259e-01 -4.986564e-04
   outer loop
     vertex -2.083541e-01 -3.646760e-01  1.325000e-01
     vertex -1.691330e-01 -3.844399e-01  1.325000e-01
     vertex -1.836691e-01 -3.777111e-01  1.200000e+00
   endloop
 endfacet
 facet normal -4.845508e-01 -8.747630e-01  5.231953e-04
   outer loop
     vertex -2.083541e-01 -3.646760e-01  1.325000e-01
     vertex -1.836691e-01 -3.777111e-01  1.200000e+00
     vertex -2.227768e-01 -3.560485e-01  1.200000e+00
   endloop
 endfacet
 facet normal -5.408004e-01 -8.411508e-01 -5.084271e-04
   outer loop
     vertex -2.452969e-01 -3.409244e-01  1.325000e-01
     vertex -2.083541e-01 -3.646760e-01  1.325000e-01
     vertex -2.227768e-01 -3.560485e-01  1.200000e+00
   endloop
 endfacet
 facet normal -5.747873e-01 -8.183027e-01  5.322729e-04
   outer loop
     vertex -2.452969e-01 -3.409244e-01  1.325000e-01
     vertex -2.227768e-01 -3.560485e-01  1.200000e+00
     vertex -2.593603e-01 -3.303517e-01  1.200000e+00
   endloop
 endfacet
 facet normal -6.256823e-01 -7.800778e-01 -5.168115e-04
   outer loop
     vertex -2.795574e-01 -3.134448e-01  1.325000e-01
     vertex -2.452969e-01 -3.409244e-01  1.325000e-01
     vertex -2.593603e-01 -3.303517e-01  1.200000e+00
   endloop
 endfacet
 facet normal -6.585113e-01 -7.525707e-01  5.399642e-04
   outer loop
     vertex -2.795574e-01 -3.134448e-01  1.325000e-01
     vertex -2.593603e-01 -3.303517e-01  1.200000e+00
     vertex -2.930052e-01 -3.009118e-01  1.200000e+00
   endloop
 endfacet
 facet normal -7.347740e-01 -6.783117e-01  5.462692e-04
   outer loop
     vertex -3.107610e-01 -2.825378e-01  1.325000e-01
     vertex -2.930052e-01 -3.009118e-01  1.200000e+00
     vertex -3.233303e-01 -2.680626e-01  1.200000e+00
   endloop
 endfacet
 facet normal -7.037225e-01 -7.104747e-01 -5.238097e-04
   outer loop
     vertex -3.107610e-01 -2.825378e-01  1.325000e-01
     vertex -2.795574e-01 -3.134448e-01  1.325000e-01
     vertex -2.930052e-01 -3.009118e-01  1.200000e+00
   endloop
 endfacet
 facet normal -7.740676e-01 -6.331028e-01 -5.294215e-04
   outer loop
     vertex -3.385665e-01 -2.485412e-01  1.325000e-01
     vertex -3.107610e-01 -2.825378e-01  1.325000e-01
     vertex -3.233303e-01 -2.680626e-01  1.200000e+00
   endloop
 endfacet
 facet normal -8.027115e-01 -5.963673e-01  5.511879e-04
   outer loop
     vertex -3.385665e-01 -2.485412e-01  1.325000e-01
     vertex -3.233303e-01 -2.680626e-01  1.200000e+00
     vertex -3.499918e-01 -2.321760e-01  1.200000e+00
   endloop
 endfacet
 facet normal -8.359483e-01 -5.488079e-01 -5.336471e-04
   outer loop
     vertex -3.626697e-01 -2.118269e-01  1.325000e-01
     vertex -3.385665e-01 -2.485412e-01  1.325000e-01
     vertex -3.499918e-01 -2.321760e-01  1.200000e+00
   endloop
 endfacet
 facet normal -8.615539e-01 -5.076657e-01  5.547204e-04
   outer loop
     vertex -3.626697e-01 -2.118269e-01  1.325000e-01
     vertex -3.499918e-01 -2.321760e-01  1.200000e+00
     vertex -3.726879e-01 -1.936589e-01  1.200000e+00
   endloop
 endfacet
 facet normal -9.106346e-01 -4.132121e-01  5.568665e-04
   outer loop
     vertex -3.828073e-01 -1.727963e-01  1.325000e-01
     vertex -3.726879e-01 -1.936589e-01  1.200000e+00
     vertex -3.911612e-01 -1.529474e-01  1.200000e+00
   endloop
 endfacet
 facet normal -8.886881e-01 -4.585119e-01 -5.364864e-04
   outer loop
     vertex -3.828073e-01 -1.727963e-01  1.325000e-01
     vertex -3.626697e-01 -2.118269e-01  1.325000e-01
     vertex -3.726879e-01 -1.936589e-01  1.200000e+00
   endloop
 endfacet
 facet normal -9.493975e-01 -3.140767e-01  5.576262e-04
   outer loop
     vertex -3.987589e-01 -1.318763e-01  1.325000e-01
     vertex -3.911612e-01 -1.529474e-01  1.200000e+00
     vertex -4.052025e-01 -1.105031e-01  1.200000e+00
   endloop
 endfacet
 facet normal -9.317102e-01 -3.632022e-01 -5.379393e-04
   outer loop
     vertex -3.987589e-01 -1.318763e-01  1.325000e-01
     vertex -3.828073e-01 -1.727963e-01  1.325000e-01
     vertex -3.911612e-01 -1.529474e-01  1.200000e+00
   endloop
 endfacet
 facet normal -9.774032e-01 -2.113826e-01  5.569997e-04
   outer loop
     vertex -4.103501e-01 -8.951411e-02  1.325000e-01
     vertex -4.052025e-01 -1.105031e-01  1.200000e+00
     vertex -4.146527e-01 -6.680667e-02  1.200000e+00
   endloop
 endfacet
 facet normal -9.645442e-01 -2.639209e-01 -5.380060e-04
   outer loop
     vertex -4.103501e-01 -8.951411e-02  1.325000e-01
     vertex -3.987589e-01 -1.318763e-01  1.325000e-01
     vertex -4.052025e-01 -1.105031e-01  1.200000e+00
   endloop
 endfacet
 facet normal -9.943346e-01 -1.062935e-01  5.549868e-04
   outer loop
     vertex -4.174542e-01 -4.617314e-02  1.325000e-01
     vertex -4.146527e-01 -6.680667e-02  1.200000e+00
     vertex -4.194047e-01 -2.235331e-02  1.200000e+00
   endloop
 endfacet
 facet normal -9.868310e-01 -1.617537e-01 -5.366863e-04
   outer loop
     vertex -4.174542e-01 -4.617314e-02  1.325000e-01
     vertex -4.103501e-01 -8.951411e-02  1.325000e-01
     vertex -4.146527e-01 -6.680667e-02  1.200000e+00
   endloop
 endfacet
 facet normal -9.999998e-01 -1.240404e-15  5.515876e-04
   outer loop
     vertex -4.199936e-01 -2.327278e-03  1.325000e-01
     vertex -4.194047e-01 -2.235331e-02  1.200000e+00
     vertex -4.194047e-01  2.235331e-02  1.200000e+00
   endloop
 endfacet
 facet normal -9.983270e-01 -5.781767e-02 -5.339802e-04
   outer loop
     vertex -4.199936e-01 -2.327278e-03  1.325000e-01
     vertex -4.174542e-01 -4.617314e-02  1.325000e-01
     vertex -4.194047e-01 -2.235331e-02  1.200000e+00
   endloop
 endfacet
 facet normal -9.943347e-01  1.062935e-01  5.468021e-04
   outer loop
     vertex -4.179403e-01  4.154403e-02  1.325000e-01
     vertex -4.194047e-01  2.235331e-02  1.200000e+00
     vertex -4.146527e-01  6.680667e-02  1.200000e+00
   endloop
 endfacet
 facet normal -9.989065e-01  4.675055e-02 -5.298879e-04
   outer loop
     vertex -4.179403e-01  4.154403e-02  1.325000e-01
     vertex -4.199936e-01 -2.327278e-03  1.325000e-01
     vertex -4.194047e-01  2.235331e-02  1.200000e+00
   endloop
 endfacet
 facet normal -9.774032e-01  2.113826e-01  5.406303e-04
   outer loop
     vertex -4.113169e-01  8.496107e-02  1.325000e-01
     vertex -4.146527e-01  6.680667e-02  1.200000e+00
     vertex -4.052025e-01  1.105031e-01  1.200000e+00
   endloop
 endfacet
 facet normal -9.885630e-01  1.508076e-01 -5.244092e-04
   outer loop
     vertex -4.113169e-01  8.496107e-02  1.325000e-01
     vertex -4.179403e-01  4.154403e-02  1.325000e-01
     vertex -4.146527e-01  6.680667e-02  1.200000e+00
   endloop
 endfacet
 facet normal -9.493975e-01  3.140767e-01  5.330723e-04
   outer loop
     vertex -4.001959e-01  1.274491e-01  1.325000e-01
     vertex -4.052025e-01  1.105031e-01  1.200000e+00
     vertex -3.911612e-01  1.529474e-01  1.200000e+00
   endloop
 endfacet
 facet normal -9.674098e-01  2.532155e-01 -5.175443e-04
   outer loop
     vertex -4.001959e-01  1.274491e-01  1.325000e-01
     vertex -4.113169e-01  8.496107e-02  1.325000e-01
     vertex -4.052025e-01  1.105031e-01  1.200000e+00
   endloop
 endfacet
 facet normal -9.106346e-01  4.132121e-01  5.241280e-04
   outer loop
     vertex -3.846987e-01  1.685434e-01  1.325000e-01
     vertex -3.911612e-01  1.529474e-01  1.200000e+00
     vertex -3.726879e-01  1.936589e-01  1.200000e+00
   endloop
 endfacet
 facet normal -9.356780e-01  3.528546e-01 -5.092931e-04
   outer loop
     vertex -3.846987e-01  1.685434e-01  1.325000e-01
     vertex -4.001959e-01  1.274491e-01  1.325000e-01
     vertex -3.911612e-01  1.529474e-01  1.200000e+00
   endloop
 endfacet
 facet normal -8.615540e-01  5.076657e-01  5.137974e-04
   outer loop
     vertex -3.649950e-01  2.077948e-01  1.325000e-01
     vertex -3.726879e-01  1.936589e-01  1.200000e+00
     vertex -3.499918e-01  2.321760e-01  1.200000e+00
   endloop
 endfacet
 facet normal -8.937148e-01  4.486353e-01 -4.996557e-04
   outer loop
     vertex -3.649950e-01  2.077948e-01  1.325000e-01
     vertex -3.846987e-01  1.685434e-01  1.325000e-01
     vertex -3.726879e-01  1.936589e-01  1.200000e+00
   endloop
 endfacet
 facet normal -8.027115e-01  5.963673e-01  5.020807e-04
   outer loop
     vertex -3.413000e-01  2.447739e-01  1.325000e-01
     vertex -3.499918e-01  2.321760e-01  1.200000e+00
     vertex -3.233303e-01  2.680626e-01  1.200000e+00
   endloop
 endfacet
 facet normal -8.419789e-01  5.395102e-01 -4.886321e-04
   outer loop
     vertex -3.413000e-01  2.447739e-01  1.325000e-01
     vertex -3.649950e-01  2.077948e-01  1.325000e-01
     vertex -3.499918e-01  2.321760e-01  1.200000e+00
   endloop
 endfacet
 facet normal -7.347741e-01  6.783118e-01  4.889779e-04
   outer loop
     vertex -3.138730e-01  2.790765e-01  1.325000e-01
     vertex -3.233303e-01  2.680626e-01  1.200000e+00
     vertex -2.930052e-01  3.009118e-01  1.200000e+00
   endloop
 endfacet
 facet normal -7.810362e-01  6.244856e-01 -4.762223e-04
   outer loop
     vertex -3.138730e-01  2.790765e-01  1.325000e-01
     vertex -3.413000e-01  2.447739e-01  1.325000e-01
     vertex -3.233303e-01  2.680626e-01  1.200000e+00
   endloop
 endfacet
 facet normal -6.585113e-01  7.525707e-01  4.744890e-04
   outer loop
     vertex -2.830139e-01  3.103275e-01  1.325000e-01
     vertex -2.930052e-01  3.009118e-01  1.200000e+00
     vertex -2.593603e-01  3.303517e-01  1.200000e+00
   endloop
 endfacet
 facet normal -7.115529e-01  7.026324e-01 -4.624264e-04
   outer loop
     vertex -2.830139e-01  3.103275e-01  1.325000e-01
     vertex -3.138730e-01  2.790765e-01  1.325000e-01
     vertex -2.930052e-01  3.009118e-01  1.200000e+00
   endloop
 endfacet
 facet normal -5.747873e-01  8.183027e-01  4.586140e-04
   outer loop
     vertex -2.490600e-01  3.381850e-01  1.325000e-01
     vertex -2.593603e-01  3.303517e-01  1.200000e+00
     vertex -2.227768e-01  3.560485e-01  1.200000e+00
   endloop
 endfacet
 facet normal -6.342888e-01  7.730960e-01 -4.472445e-04
   outer loop
     vertex -2.490600e-01  3.381850e-01  1.325000e-01
     vertex -2.830139e-01  3.103275e-01  1.325000e-01
     vertex -2.593603e-01  3.303517e-01  1.200000e+00
   endloop
 endfacet
 facet normal -4.845508e-01  8.747630e-01  4.413531e-04
   outer loop
     vertex -2.123827e-01  3.623446e-01  1.325000e-01
     vertex -2.227768e-01  3.560485e-01  1.200000e+00
     vertex -1.836691e-01  3.777111e-01  1.200000e+00
   endloop
 endfacet
 facet normal -5.500890e-01  8.351059e-01 -4.306765e-04
   outer loop
     vertex -2.123827e-01  3.623446e-01  1.325000e-01
     vertex -2.490600e-01  3.381850e-01  1.325000e-01
     vertex -2.227768e-01  3.560485e-01  1.200000e+00
   endloop
 endfacet
 facet normal -3.888241e-01  9.213119e-01  4.227063e-04
   outer loop
     vertex -1.733831e-01  3.825419e-01  1.325000e-01
     vertex -1.836691e-01  3.777111e-01  1.200000e+00
     vertex -1.424803e-01  3.950941e-01  1.200000e+00
   endloop
 endfacet
 facet normal -4.598740e-01  8.879841e-01 -4.127226e-04
   outer loop
     vertex -1.733831e-01  3.825419e-01  1.325000e-01
     vertex -2.123827e-01  3.623446e-01  1.325000e-01
     vertex -1.836691e-01  3.777111e-01  1.200000e+00
   endloop
 endfacet
 facet normal -3.646303e-01  9.311523e-01 -3.933828e-04
   outer loop
     vertex -1.324875e-01  3.985562e-01  1.325000e-01
     vertex -1.733831e-01  3.825419e-01  1.325000e-01
     vertex -1.424803e-01  3.950941e-01  1.200000e+00
   endloop
 endfacet
 facet normal -3.156136e-01  9.488878e-01  1.229819e-04
   outer loop
     vertex -1.313516e-01  3.989320e-01  1.480774e-01
     vertex -1.324875e-01  3.985562e-01  1.325000e-01
     vertex -1.424803e-01  3.950941e-01  1.200000e+00
   endloop
 endfacet
 facet normal -3.101034e-01  9.507028e-01  1.878981e-04
   outer loop
     vertex -1.283945e-01  3.998936e-01  1.633804e-01
     vertex -1.313516e-01  3.989320e-01  1.480774e-01
     vertex -1.424803e-01  3.950941e-01  1.200000e+00
   endloop
 endfacet
 facet normal -2.979121e-01  9.545932e-01  3.715688e-04
   outer loop
     vertex -1.210241e-01  4.021855e-01  1.845492e-01
     vertex -1.283945e-01  3.998936e-01  1.633804e-01
     vertex -1.424803e-01  3.950941e-01  1.200000e+00
   endloop
 endfacet
 facet normal -2.886919e-01  9.574219e-01  5.861438e-04
   outer loop
     vertex -1.210241e-01  4.021855e-01  1.845492e-01
     vertex -1.424803e-01  3.950941e-01  1.200000e+00
     vertex -9.967721e-02  4.080006e-01  1.200000e+00
   endloop
 endfacet
 facet normal -2.756181e-01  9.612672e-01  2.892857e-04
   outer loop
     vertex -1.100685e-01  4.053208e-01  2.043166e-01
     vertex -1.210241e-01  4.021855e-01  1.845492e-01
     vertex -9.967721e-02  4.080006e-01  1.200000e+00
   endloop
 endfacet
 facet normal -2.450958e-01  9.694989e-01 -5.141049e-05
   outer loop
     vertex -9.583098e-02  4.089210e-01  2.219880e-01
     vertex -1.100685e-01  4.053208e-01  2.043166e-01
     vertex -9.967721e-02  4.080006e-01  1.200000e+00
   endloop
 endfacet
 facet normal -2.080329e-01  9.781218e-01  1.024629e-04
   outer loop
     vertex -7.880650e-02  4.125404e-01  2.369353e-01
     vertex -9.583098e-02  4.089210e-01  2.219880e-01
     vertex -9.967721e-02  4.080006e-01  1.200000e+00
   endloop
 endfacet
 facet normal -1.852887e-01  9.826839e-01  6.168605e-04
   outer loop
     vertex -7.880650e-02  4.125404e-01  2.369353e-01
     vertex -9.967721e-02  4.080006e-01  1.200000e+00
     vertex -5.574472e-02  4.162842e-01  1.200000e+00
   endloop
 endfacet
 facet normal -1.621866e-01  9.867601e-01  4.780717e-05
   outer loop
     vertex -5.736163e-02  4.160645e-01  2.497935e-01
     vertex -7.880650e-02  4.125404e-01  2.369353e-01
     vertex -5.574472e-02  4.162842e-01  1.200000e+00
   endloop
 endfacet
 facet normal -1.088784e-01  9.940551e-01 -4.459132e-05
   outer loop
     vertex -3.407387e-02  4.186155e-01  2.583502e-01
     vertex -5.736163e-02  4.160645e-01  2.497935e-01
     vertex -5.574472e-02  4.162842e-01  1.200000e+00
   endloop
 endfacet
 facet normal -7.978609e-02  9.968118e-01  6.317548e-04
   outer loop
     vertex -3.407387e-02  4.186155e-01  2.583502e-01
     vertex -5.574472e-02  4.162842e-01  1.200000e+00
     vertex -1.118062e-02  4.198512e-01  1.200000e+00
   endloop
 endfacet
 facet normal -5.216072e-02  9.986387e-01 -4.226619e-05
   outer loop
     vertex -9.728981e-03  4.198873e-01  2.624252e-01
     vertex -3.407387e-02  4.186155e-01  2.583502e-01
     vertex -1.118062e-02  4.198512e-01  1.200000e+00
   endloop
 endfacet
 facet normal  3.276252e-03  9.999946e-01  4.361859e-05
   outer loop
     vertex  1.247967e-02  4.198145e-01  2.621952e-01
     vertex -9.728981e-03  4.198873e-01  2.624252e-01
     vertex -1.118062e-02  4.198512e-01  1.200000e+00
   endloop
 endfacet
 facet normal  2.662052e-02  9.996454e-01  6.325950e-04
   outer loop
     vertex  1.247967e-02  4.198145e-01  2.621952e-01
     vertex -1.118062e-02  4.198512e-01  1.200000e+00
     vertex  3.351016e-02  4.186610e-01  1.200000e+00
   endloop
 endfacet
 facet normal  5.583911e-02  9.984398e-01 -2.412158e-05
   outer loop
     vertex  3.441318e-02  4.185878e-01  2.582599e-01
     vertex  1.247967e-02  4.198145e-01  2.621952e-01
     vertex  3.351016e-02  4.186610e-01  1.200000e+00
   endloop
 endfacet
 facet normal  1.070780e-01  9.942506e-01  2.533640e-05
   outer loop
     vertex  5.549575e-02  4.163174e-01  2.506671e-01
     vertex  3.441318e-02  4.185878e-01  2.582599e-01
     vertex  3.351016e-02  4.186610e-01  1.200000e+00
   endloop
 endfacet
 facet normal  1.327255e-01  9.911526e-01  6.269546e-04
   outer loop
     vertex  5.549575e-02  4.163174e-01  2.506671e-01
     vertex  3.351016e-02  4.186610e-01  1.200000e+00
     vertex  7.782126e-02  4.127273e-01  1.200000e+00
   endloop
 endfacet
 facet normal  1.579777e-01  9.874427e-01  1.906634e-05
   outer loop
     vertex  7.715163e-02  4.128530e-01  2.381342e-01
     vertex  5.549575e-02  4.163174e-01  2.506671e-01
     vertex  7.782126e-02  4.127273e-01  1.200000e+00
   endloop
 endfacet
 facet normal  2.062620e-01  9.784968e-01 -1.571747e-05
   outer loop
     vertex  9.607409e-02  4.088640e-01  2.217337e-01
     vertex  7.715163e-02  4.128530e-01  2.381342e-01
     vertex  7.782126e-02  4.127273e-01  1.200000e+00
   endloop
 endfacet
 facet normal  2.373267e-01  9.714297e-01  5.918062e-04
   outer loop
     vertex  9.607409e-02  4.088640e-01  2.217337e-01
     vertex  7.782126e-02  4.127273e-01  1.200000e+00
     vertex  1.212506e-01  4.021173e-01  1.200000e+00
   endloop
 endfacet
 facet normal  2.475178e-01  9.688833e-01  3.119671e-04
   outer loop
     vertex  1.114893e-01  4.049322e-01  2.021582e-01
     vertex  9.607409e-02  4.088640e-01  2.217337e-01
     vertex  1.212506e-01  4.021173e-01  1.200000e+00
   endloop
 endfacet
 facet normal  2.789805e-01  9.602968e-01 -2.003821e-05
   outer loop
     vertex  1.228634e-01  4.016275e-01  1.802274e-01
     vertex  1.114893e-01  4.049322e-01  2.021582e-01
     vertex  1.212506e-01  4.021173e-01  1.200000e+00
   endloop
 endfacet
 facet normal  3.009606e-01  9.536366e-01  1.792153e-05
   outer loop
     vertex  1.298838e-01  3.994123e-01  1.568616e-01
     vertex  1.228634e-01  4.016275e-01  1.802274e-01
     vertex  1.212506e-01  4.021173e-01  1.200000e+00
   endloop
 endfacet
 facet normal  3.392388e-01  9.407002e-01  3.682646e-04
   outer loop
     vertex  1.298838e-01  3.994123e-01  1.568616e-01
     vertex  1.212506e-01  4.021173e-01  1.200000e+00
     vertex  1.633062e-01  3.869510e-01  1.200000e+00
   endloop
 endfacet
 facet normal  3.210112e-01  9.470749e-01  1.028434e-03
   outer loop
     vertex  1.324875e-01  3.985562e-01  1.325000e-01
     vertex  1.298838e-01  3.994123e-01  1.568616e-01
     vertex  1.633062e-01  3.869510e-01  1.200000e+00
   endloop
 endfacet
 facet normal  3.644153e-01  9.312365e-01 -3.968270e-04
   outer loop
     vertex  1.732064e-01  3.826219e-01  1.325000e-01
     vertex  1.324875e-01  3.985562e-01  1.325000e-01
     vertex  1.633062e-01  3.869510e-01  1.200000e+00
   endloop
 endfacet
 facet normal  4.373073e-01  8.993121e-01  4.086549e-04
   outer loop
     vertex  1.732064e-01  3.826219e-01  1.325000e-01
     vertex  1.633062e-01  3.869510e-01  1.200000e+00
     vertex  2.035114e-01  3.674005e-01  1.200000e+00
   endloop
 endfacet
 facet normal  5.304209e-01  8.477344e-01  3.822584e-04
   outer loop
     vertex  2.120480e-01  3.625405e-01  1.325000e-01
     vertex  2.035114e-01  3.674005e-01  1.200000e+00
     vertex  2.414107e-01  3.436872e-01  1.200000e+00
   endloop
 endfacet
 facet normal  4.592588e-01  8.883024e-01 -3.715062e-04
   outer loop
     vertex  2.120480e-01  3.625405e-01  1.325000e-01
     vertex  1.732064e-01  3.826219e-01  1.325000e-01
     vertex  2.035114e-01  3.674005e-01  1.200000e+00
   endloop
 endfacet
 facet normal  6.175246e-01  7.865515e-01  3.537105e-04
   outer loop
     vertex  2.485913e-01  3.385297e-01  1.325000e-01
     vertex  2.414107e-01  3.436872e-01  1.200000e+00
     vertex  2.765748e-01  3.160797e-01  1.200000e+00
   endloop
 endfacet
 facet normal  5.491246e-01  8.357404e-01 -3.440340e-04
   outer loop
     vertex  2.485913e-01  3.385297e-01  1.325000e-01
     vertex  2.120480e-01  3.625405e-01  1.325000e-01
     vertex  2.414107e-01  3.436872e-01  1.200000e+00
   endloop
 endfacet
 facet normal  6.976315e-01  7.164567e-01  3.230115e-04
   outer loop
     vertex  2.824402e-01  3.108497e-01  1.325000e-01
     vertex  2.765748e-01  3.160797e-01  1.200000e+00
     vertex  3.086051e-01  2.848910e-01  1.200000e+00
   endloop
 endfacet
 facet normal  6.330386e-01  7.741202e-01 -3.144106e-04
   outer loop
     vertex  2.824402e-01  3.108497e-01  1.325000e-01
     vertex  2.485913e-01  3.385297e-01  1.325000e-01
     vertex  2.765748e-01  3.160797e-01  1.200000e+00
   endloop
 endfacet
 facet normal  7.698340e-01  6.382442e-01  2.901615e-04
   outer loop
     vertex  3.132279e-01  2.798005e-01  1.325000e-01
     vertex  3.086051e-01  2.848910e-01  1.200000e+00
     vertex  3.371389e-01  2.504743e-01  1.200000e+00
   endloop
 endfacet
 facet normal  7.100914e-01  7.041095e-01 -2.826361e-04
   outer loop
     vertex  3.132279e-01  2.798005e-01  1.325000e-01
     vertex  2.824402e-01  3.108497e-01  1.325000e-01
     vertex  3.086051e-01  2.848910e-01  1.200000e+00
   endloop
 endfacet
 facet normal  8.333139e-01  5.528000e-01  2.551607e-04
   outer loop
     vertex  3.406206e-01  2.457186e-01  1.325000e-01
     vertex  3.371389e-01  2.504743e-01  1.200000e+00
     vertex  3.618527e-01  2.132196e-01  1.200000e+00
   endloop
 endfacet
 facet normal  7.794477e-01  6.264673e-01 -2.487106e-04
   outer loop
     vertex  3.406206e-01  2.457186e-01  1.325000e-01
     vertex  3.132279e-01  2.798005e-01  1.325000e-01
     vertex  3.371389e-01  2.504743e-01  1.200000e+00
   endloop
 endfacet
 facet normal  8.873521e-01  4.610925e-01  2.180092e-04
   outer loop
     vertex  3.643214e-01  2.089735e-01  1.325000e-01
     vertex  3.618527e-01  2.132196e-01  1.200000e+00
     vertex  3.824666e-01  1.735491e-01  1.200000e+00
   endloop
 endfacet
 facet normal  8.403559e-01  5.420350e-01 -2.126344e-04
   outer loop
     vertex  3.643214e-01  2.089735e-01  1.325000e-01
     vertex  3.406206e-01  2.457186e-01  1.325000e-01
     vertex  3.618527e-01  2.132196e-01  1.200000e+00
   endloop
 endfacet
 facet normal  9.313362e-01  3.641606e-01  1.787073e-04
   outer loop
     vertex  3.840735e-01  1.699634e-01  1.325000e-01
     vertex  3.824666e-01  1.735491e-01  1.200000e+00
     vertex  3.987470e-01  1.319122e-01  1.200000e+00
   endloop
 endfacet
 facet normal  8.921558e-01  4.517278e-01 -1.744077e-04
   outer loop
     vertex  3.840735e-01  1.699634e-01  1.325000e-01
     vertex  3.643214e-01  2.089735e-01  1.325000e-01
     vertex  3.824666e-01  1.735491e-01  1.200000e+00
   endloop
 endfacet
 facet normal  9.647679e-01  2.631026e-01  1.372552e-04
   outer loop
     vertex  3.996628e-01  1.291111e-01  1.325000e-01
     vertex  3.987470e-01  1.319122e-01  1.200000e+00
     vertex  4.105094e-01  8.878070e-02  1.200000e+00
   endloop
 endfacet
 facet normal  9.342860e-01  3.565244e-01 -1.340307e-04
   outer loop
     vertex  3.996628e-01  1.291111e-01  1.325000e-01
     vertex  3.840735e-01  1.699634e-01  1.325000e-01
     vertex  3.987470e-01  1.319122e-01  1.200000e+00
   endloop
 endfacet
 facet normal  9.872684e-01  1.590635e-01  9.365316e-05
   outer loop
     vertex  4.109202e-01  8.685947e-02  1.325000e-01
     vertex  4.105094e-01  8.878070e-02  1.200000e+00
     vertex  4.176206e-01  4.464326e-02  1.200000e+00
   endloop
 endfacet
 facet normal  9.662898e-01  2.574569e-01 -9.150360e-05
   outer loop
     vertex  4.109202e-01  8.685947e-02  1.325000e-01
     vertex  3.996628e-01  1.291111e-01  1.325000e-01
     vertex  4.105094e-01  8.878070e-02  1.200000e+00
   endloop
 endfacet
 facet normal  9.985827e-01  5.322217e-02  4.790133e-05
   outer loop
     vertex  4.177239e-01  4.366638e-02  1.325000e-01
     vertex  4.176206e-01  4.464326e-02  1.200000e+00
     vertex  4.200000e-01  0.000000e+00  1.200000e+00
   endloop
 endfacet
 facet normal  9.878203e-01  1.555989e-01 -4.682661e-05
   outer loop
     vertex  4.177239e-01  4.366638e-02  1.325000e-01
     vertex  4.109202e-01  8.685947e-02  1.325000e-01
     vertex  4.176206e-01  4.464326e-02  1.200000e+00
   endloop
 endfacet
 facet normal  9.986443e-01  5.205435e-02  4.906344e-19
   outer loop
     vertex  4.200000e-01  1.006164e-17  1.325000e-01
     vertex  4.177239e-01  4.366638e-02  1.325000e-01
     vertex  4.200000e-01  0.000000e+00  1.200000e+00
   endloop
 endfacet
 facet normal -2.022975e-01 -9.793238e-01  7.762453e-04
   outer loop
     vertex -7.799505e-02 -4.126945e-01  2.077032e-01
     vertex -9.265683e-02 -4.096520e-01  2.252601e-01
     vertex -8.614086e-02 -4.110715e-01  1.325000e-01
   endloop
 endfacet
 facet normal -1.175857e-01 -9.930616e-01  1.488723e-03
   outer loop
     vertex -3.939475e-02 -4.181484e-01  1.832546e-01
     vertex -5.995989e-02 -4.156980e-01  1.934771e-01
     vertex -4.330117e-02 -4.177619e-01  1.325000e-01
   endloop
 endfacet
endsolid
